Coordinates
version=1
nRows=14
nColumns=63
inDegrees=yes

Units are S.I. units (second, meters, Newtons, ...)
If the header above contains a line with 'inDegrees', this indicates whether rotational values are in degrees (yes) or radians (no).

endheader
time	pelvis_tilt	pelvis_list	pelvis_rotation	pelvis_tx	pelvis_ty	pelvis_tz	hip_flexion_r	hip_adduction_r	hip_rotation_r	knee_angle_r	knee_angle_r_beta	ankle_angle_r	subtalar_angle_r	mtp_angle_r	hip_flexion_l	hip_adduction_l	hip_rotation_l	knee_angle_l	knee_angle_l_beta	ankle_angle_l	subtalar_angle_l	mtp_angle_l	L5_S1_Flex_Ext	L5_S1_Lat_Bending	L5_S1_axial_rotation	L4_L5_Flex_Ext	L4_L5_Lat_Bending	L4_L5_axial_rotation	L3_L4_Flex_Ext	L3_L4_Lat_Bending	L3_L4_axial_rotation	L2_L3_Flex_Ext	L2_L3_Lat_Bending	L2_L3_axial_rotation	L1_L2_Flex_Ext	L1_L2_Lat_Bending	L1_L2_axial_rotation	L1_T12_Flex_Ext	L1_T12_Lat_Bending	L1_T12_axial_rotation	Abs_r3	Abs_r2	Abs_r1	Abs_t1	Abs_t2	neck_flexion	neck_bending	neck_rotation	arm_flex_r	arm_add_r	arm_rot_r	elbow_flex_r	pro_sup_r	wrist_flex_r	wrist_dev_r	arm_flex_l	arm_add_l	arm_rot_l	elbow_flex_l	pro_sup_l	wrist_flex_l	wrist_dev_l
6.600000	-0.966096	-0.648974	92.425046	0.266750	0.955201	0.229874	-2.974619	-1.689105	-19.561797	6.849727	0.119550	16.051961	17.139557	0.000000	-3.989522	1.912940	-0.678622	4.094228	0.071458	8.749631	-15.695304	0.000000	-0.017526	-0.197041	1.197769	-0.032548	-0.262065	1.272630	-0.028794	-0.479086	1.272630	-0.020031	-0.479086	1.048048	-0.016275	-0.401806	0.973187	-0.010015	-0.305217	0.898327	-0.125189	-2.228968	6.661633	0.000000	0.000000	15.028440	2.638801	3.151064	5.672516	-4.552381	165.984445	0.968777	21.883179	-15.763109	-7.859900	7.997924	-16.286013	85.218930	23.762070	35.322564	-10.518674	-0.086653
6.616667	-0.964062	-0.724962	92.335028	0.266623	0.955023	0.230565	-2.801697	-1.752134	-19.579585	6.948969	0.121282	15.942350	17.243207	0.000000	-3.809297	1.935628	-1.089168	4.224465	0.073731	8.589934	-15.645250	0.000000	-0.020402	-0.195005	1.199517	-0.037888	-0.259357	1.274486	-0.033518	-0.474136	1.274486	-0.023317	-0.474136	1.049577	-0.018945	-0.397655	0.974607	-0.011658	-0.302063	0.899637	-0.145729	-2.205939	6.671351	0.000000	0.000000	15.222358	2.490159	2.930220	5.792078	-4.554569	166.285331	0.937376	23.012485	-16.263797	-7.515081	7.969367	-16.210014	84.667181	23.683344	35.866204	-10.448969	0.185349
6.633333	-0.967747	-0.798720	92.242574	0.266504	0.954852	0.231284	-2.626604	-1.818347	-19.568186	7.044225	0.122945	15.847878	17.333764	0.000000	-3.625597	1.964545	-1.458004	4.350783	0.075935	8.445566	-15.624864	0.000000	-0.024186	-0.193203	1.202811	-0.044915	-0.256960	1.277986	-0.039735	-0.469753	1.277986	-0.027642	-0.469753	1.052459	-0.022459	-0.393979	0.977284	-0.013820	-0.299271	0.902108	-0.172756	-2.185549	6.689672	0.000000	0.000000	15.427145	2.352069	2.706510	5.916570	-4.560978	166.573089	0.910745	24.026108	-16.701245	-7.202064	7.991309	-16.131680	84.417366	23.609786	36.041358	-10.428627	0.420899
6.650000	-0.977052	-0.873853	92.179511	0.266363	0.954693	0.232001	-2.453882	-1.884093	-19.568282	7.131826	0.124474	15.767352	17.411929	0.000000	-3.428617	1.993395	-1.802048	4.488736	0.078343	8.347416	-15.550639	0.000000	-0.027790	-0.192046	1.205079	-0.051608	-0.255421	1.280397	-0.045656	-0.466941	1.280397	-0.031761	-0.466941	1.054444	-0.025806	-0.391620	0.979127	-0.015879	-0.297479	0.903810	-0.198500	-2.172462	6.702290	0.000000	0.000000	15.636501	2.220222	2.444093	6.033152	-4.575250	166.793983	0.890301	24.824292	-17.048936	-6.964776	8.046582	-16.052063	84.331815	23.518609	36.064477	-10.348706	0.665511
6.666667	-1.002043	-0.948547	92.148795	0.266210	0.954554	0.232674	-2.289486	-1.961119	-19.625672	7.214087	0.125910	15.701441	17.524244	0.000000	-3.227928	2.034658	-2.083895	4.634588	0.080889	8.273445	-15.483149	0.000000	-0.031025	-0.192925	1.206985	-0.057616	-0.256591	1.282421	-0.050971	-0.469078	1.282421	-0.035458	-0.469078	1.056112	-0.028810	-0.393413	0.980675	-0.017728	-0.298841	0.905238	-0.221608	-2.182409	6.712887	0.000000	0.000000	15.842698	2.094189	2.137431	6.136159	-4.589114	166.988965	0.873708	25.418076	-17.317818	-6.755293	8.122194	-15.983472	84.383765	23.432413	35.969145	-10.279552	0.881624
6.683333	-1.030590	-1.020360	92.170742	0.266052	0.954433	0.233252	-2.154842	-2.020364	-19.653067	7.255755	0.126637	15.633947	17.548140	0.000000	-3.023470	2.059157	-2.447912	4.803327	0.083834	8.304702	-15.164330	0.000000	-0.033622	-0.194832	1.204052	-0.062439	-0.259126	1.279305	-0.055237	-0.473714	1.279305	-0.038426	-0.473714	1.053545	-0.031221	-0.397301	0.978292	-0.019211	-0.301794	0.903039	-0.240156	-2.203975	6.696573	0.000000	0.000000	16.052778	1.988559	1.802630	6.217456	-4.602876	167.076134	0.860471	25.879441	-17.528398	-6.591246	8.178659	-15.941553	84.344855	23.365647	35.967242	-10.207947	1.110291
6.700000	-1.064090	-1.090066	92.239017	0.265896	0.954337	0.233691	-2.053239	-2.064201	-19.676886	7.253617	0.126599	15.569840	17.528125	0.000000	-2.824478	2.075115	-2.859545	4.982940	0.086969	8.414680	-14.677552	0.000000	-0.034492	-0.197991	1.199555	-0.064056	-0.263328	1.274527	-0.056668	-0.481395	1.274527	-0.039421	-0.481395	1.049611	-0.032030	-0.403743	0.974639	-0.019709	-0.306688	0.899666	-0.246376	-2.239712	6.671566	0.000000	0.000000	16.239362	1.891287	1.427068	6.263050	-4.612389	166.936458	0.851949	26.400773	-17.723719	-6.461818	8.240063	-15.918606	84.418519	23.310174	35.885576	-10.148638	1.260218
6.716667	-1.105152	-1.147934	92.363702	0.265722	0.954276	0.233992	-1.987786	-2.099654	-19.730996	7.225689	0.126112	15.523664	17.494772	0.000000	-2.646131	2.090591	-3.160013	5.162592	0.090104	8.521413	-14.258114	0.000000	-0.035353	-0.202615	1.192584	-0.065654	-0.269478	1.267120	-0.058081	-0.492639	1.267120	-0.040405	-0.492639	1.043511	-0.032829	-0.413173	0.968974	-0.020201	-0.313851	0.894438	-0.252523	-2.292025	6.632794	0.000000	0.000000	16.415063	1.789293	1.004896	6.276749	-4.615590	166.742460	0.840038	26.908538	-17.909636	-6.325929	8.339381	-15.902952	84.780081	23.242415	35.581749	-10.080991	1.278365
6.733333	-1.147137	-1.196324	92.539543	0.265537	0.954244	0.234133	-1.961052	-2.116897	-19.805284	7.159476	0.124956	15.488698	17.447103	0.000000	-2.489509	2.098055	-3.410325	5.338992	0.093183	8.668005	-13.801281	0.000000	-0.034966	-0.207844	1.181903	-0.064935	-0.276433	1.255772	-0.057445	-0.505353	1.255772	-0.039962	-0.505353	1.034165	-0.032469	-0.423836	0.960296	-0.019979	-0.321951	0.886427	-0.249758	-2.351177	6.573391	0.000000	0.000000	16.560908	1.697726	0.580751	6.258302	-4.608769	166.472209	0.825385	27.552426	-18.126272	-6.158032	8.465769	-15.892637	85.424046	23.165394	35.029614	-10.009748	1.156665
6.750000	-1.187836	-1.231536	92.743667	0.265362	0.954237	0.234125	-1.969295	-2.118179	-19.890677	7.064809	0.123304	15.469698	17.401336	0.000000	-2.366932	2.101060	-3.573963	5.496329	0.095929	8.831371	-13.382132	0.000000	-0.033812	-0.213253	1.170697	-0.062793	-0.283627	1.243865	-0.055550	-0.518504	1.243865	-0.038644	-0.518504	1.024360	-0.031398	-0.434866	0.951191	-0.019320	-0.330329	0.878022	-0.241519	-2.412364	6.511063	0.000000	0.000000	16.673016	1.624224	0.176512	6.212141	-4.594191	166.257578	0.809119	28.188059	-18.373256	-5.953867	8.617553	-15.883870	86.324832	23.079242	34.279608	-9.938316	0.931392
6.766667	-1.227167	-1.254381	92.979743	0.265184	0.954251	0.233987	-2.010190	-2.105383	-20.009821	6.946354	0.121237	15.463476	17.369672	0.000000	-2.278967	2.102919	-3.605406	5.628426	0.098235	8.994027	-13.052725	0.000000	-0.031864	-0.218783	1.157511	-0.059176	-0.290981	1.229856	-0.052350	-0.531948	1.229856	-0.036418	-0.531948	1.012822	-0.029589	-0.446142	0.940478	-0.018207	-0.338894	0.868134	-0.227605	-2.474914	6.437731	0.000000	0.000000	16.750296	1.581645	-0.178178	6.140407	-4.569489	165.986160	0.794647	28.942890	-18.640645	-5.709646	8.795082	-15.875275	87.474037	22.985995	33.320782	-9.883176	0.609574
6.783333	-1.263083	-1.265548	93.240037	0.265015	0.954280	0.233748	-2.079145	-2.079361	-20.162274	6.811578	0.118884	15.464003	17.351276	0.000000	-2.224324	2.102130	-3.496601	5.731382	0.100031	9.149985	-12.824120	0.000000	-0.029490	-0.224402	1.143865	-0.054767	-0.298455	1.215357	-0.048450	-0.545612	1.215357	-0.033705	-0.545612	1.000882	-0.027385	-0.457601	0.929390	-0.016851	-0.347599	0.857899	-0.210647	-2.538485	6.361834	0.000000	0.000000	16.797132	1.562864	-0.499076	6.043929	-4.537272	165.606950	0.784694	29.741847	-18.892595	-5.467940	8.978764	-15.871170	88.700376	22.888434	32.346166	-9.805873	0.251169
6.800000	-1.296174	-1.269783	93.507455	0.264862	0.954314	0.233434	-2.164695	-2.045869	-20.343524	6.672201	0.116452	15.465059	17.341209	0.000000	-2.196139	2.102963	-3.259541	5.805463	0.101324	9.292803	-12.704200	0.000000	-0.026239	-0.230212	1.132735	-0.048729	-0.306181	1.203531	-0.043109	-0.559736	1.203531	-0.029989	-0.559736	0.991143	-0.024366	-0.469447	0.920348	-0.014993	-0.356598	0.849552	-0.187426	-2.604199	6.299934	0.000000	0.000000	16.815966	1.567052	-0.798294	5.927583	-4.501717	165.356084	0.775239	30.309818	-19.105975	-5.224624	9.163122	-15.872171	89.949387	22.793868	31.381561	-9.739714	-0.122141
6.816667	-1.329770	-1.268555	93.764430	0.264741	0.954352	0.233075	-2.257371	-2.015137	-20.545592	6.545529	0.114241	15.469882	17.343081	0.000000	-2.193481	2.109848	-2.922427	5.846445	0.102040	9.412435	-12.681211	0.000000	-0.022887	-0.236587	1.127427	-0.042503	-0.314660	1.197892	-0.037600	-0.575237	1.197892	-0.026157	-0.575237	0.986499	-0.021253	-0.482447	0.916035	-0.013077	-0.366473	0.845571	-0.163477	-2.676315	6.270413	0.000000	0.000000	16.818842	1.585437	-1.093899	5.795288	-4.464327	165.135205	0.767371	30.650812	-19.243778	-5.007497	9.349316	-15.879513	91.185943	22.705930	30.433850	-9.682023	-0.496247
